Harry.Potter.and.the.Deathly.Hallows.Part.1.DVDRip.XviD-RLF             


General:


Complete name                    : rlf-hpdhp1.avi
Format/Info                      : Audio Video Interleave
File size                        : 707 MiB
Duration                         : 2h 26mn
Overall bit rate                 : 677 Kbps
Language                         : English
Encoder                          : Ralf


Video:


Format                           : MPEG-4 Visual
Format profile                   : Simple@L3
Format settings, BVOP            : 1
Format settings, QPel            : No
Format settings, GMC             : No warppoints
Format settings, Matrix          : Custom
Codec ID/Hint                    : XviD
Duration                         : 2h 26mn
Bit rate                         : 547 Kbps
Width                            : 608 pixels
Height                           : 352 pixels
Display aspect ratio             : 16:9
Frame rate                       : 23.976 fps
Color space                      : YUV
Chroma subsampling               : 4:2:0
Bit depth                        : 8 bits
Scan type                        : Progressive
Bits/(Pixel*Frame)               : 0.107
Stream size                      : 572 MiB (81%)


Audio:


Format                           : MPEG Audio
Format profile                   : Layer 3
Mode                             : Joint stereo
Codec ID/Hint                    : MP3
Duration                         : 2h 26mn
Bit rate mode                    : Variable
Bit rate                         : 116 Kbps
Channel(s)                       : 2 channels
Sampling rate                    : 48.0 KHz
Stream size                      : 122 MiB (17%)
Alignment                        : Aligned on interleaves
Interleave, duration             : 24 ms (0.58 video frame)
Interleave, preload duration     : 138 ms
Writing library                  : LAME3.98.2
                    
                                  
SOURCE:

TWiZTED NTSC DVD-R


PILOT:


As Harry races against time and evil to destroy the Horcruxes, he uncovers the existence of three most powerful objects in the wizarding world: the Deathly Hallows.


CAST:


Bill Nighy ... Minister Rufus Scrimgeour 
Emma Watson ... Hermione Granger 
Richard Griffiths ... Vernon Dursley 
Harry Melling 	... Dudley Dursley 
Daniel Radcliffe ... Harry Potter


SCREENS:

 
http://www.leetleech.org/images/35332162580613315347.png
 
http://www.leetleech.org/images/00397791016828449838.png
 
http://www.leetleech.org/images/02639207501115422820.png
 
http://www.leetleech.org/images/50725543509998090571.png